# xmcd
#
# Track frame offsets:
#	150
#	12197
#	24852
#	39565
#	50597
#	63110
#	76950
#	89727
#	101277
#	111720
#	123145
#	134042
#	147112
#	157532
#	169970
#
# Disc length: 2455
#
# Revision: 2
# Processed by: cddbd v1.5.1PL0 Copyright (c) Steve Scherf et al.
# Submitted via: audiograbber 1.83.01
# Normalized: r1:DSETVAR1
#
DISCID=be09950f
DTITLE=Various Artist - Soul Classics 1968 - (Volume 02)
DYEAR=1999
DGENRE=Soul
TTITLE0=Otis Redding - The Dock Of The Bay (Sittin' On)
TTITLE1=Aretha Franklin - Chain Of Fools
TTITLE2=Otis Redding - I've Got Dreams To Remember
TTITLE3=Wilson Pickett - I'm A Midnight Mover
TTITLE4=Sam and Dave - I Thank You
TTITLE5=Percy Sledge - Take Time To Know Her
TTITLE6=Johnnie Taylor - Who's Making Love
TTITLE7=Clarence Carter - Slip Away
TTITLE8=Aretha Franklin - Think
TTITLE9=Eddie Floyd - Bring It On Home To Me
TTITLE10=Arthur Conley - Funky Street
TTITLE11=William Bell - A Tribute To A King
TTITLE12=Clarence Carter - Too Weak To Fight
TTITLE13=Aretha Franklin - See Saw
TTITLE14=Archie Bell and The Drells - Tighten Up
EXTD=
EXTT0=
EXTT1=
EXTT2=
EXTT3=
EXTT4=
EXTT5=
EXTT6=
EXTT7=
EXTT8=
EXTT9=
EXTT10=
EXTT11=
EXTT12=
EXTT13=
EXTT14=
PLAYORDER=
